#!OML:ASF E:\acrobat2\Project_11_07_03\Capture day 1\Session 1\Acrobat.ASF
:FULLY-SPECIFIED
:DEGREES
197
root 10.9623 18.0175 -30.1575 43.1053 -87.7119 -40.499
lowerback -5.2436 0.276072 2.27292
upperback -4.11955 0.185188 -0.340823
thorax -1.28936 -0.0018938 -1.61607
lowerneck -1.62496 -0.483946 -1.35708
upperneck 3.4144 -0.743953 3.41165
head 1.35312 -0.340695 1.27972
rclavicle -2.06239e-015 4.96962e-015
rhumerus -11.1064 -30.7074 -10.4397
rradius 19.5291
rwrist 17.961
rhand -11.9541 -46.8662
rfingers 7.12502
rthumb 14.1012 -76.3678
lclavicle -2.06239e-015 4.96962e-015
lhumerus -0.476209 6.48955 7.96593
lradius 19.9099
lwrist 6.76967
lhand -6.92682 -4.1579
lfingers 7.12502
lthumb 18.9412 24.9399
rfemur 9.85636 14.7013 14.714
rtibia -2.39237
rfoot -24.8665 -30.4486
rtoes -1.11111
lfemur 9.95278 -9.83589 -5.31394
ltibia -3.22918
lfoot -29.857 8.4679
ltoes 31.2782
198
root 10.9636 18.0176 -30.1612 43.3814 -87.6766 -40.7891
lowerback -5.2109 0.252415 2.38144
upperback -4.11267 0.150883 -0.337247
thorax -1.30204 -0.0212656 -1.6747
lowerneck -1.50147 -0.452577 -1.39012
upperneck 3.29346 -0.69803 3.4097
head 1.29239 -0.319938 1.28467
rclavicle -4.67144e-015 6.16232e-015
rhumerus -11.0677 -30.5392 -10.47
rradius 19.4904
rwrist 17.7815
rhand -12.0309 -46.9176
rfingers 7.12502
rthumb 14.0272 -76.4243
lclavicle -4.67144e-015 6.16232e-015
lhumerus -0.490463 6.57876 7.93172
lradius 19.9648
lwrist 6.89278
lhand -6.88004 -3.97362
lfingers 7.12502
lthumb 18.9862 25.1197
rfemur 9.86367 14.6955 14.7738
rtibia -2.37549
rfoot -25.0324 -30.439
rtoes -1.41194
lfemur 9.98214 -10.2382 -5.38675
ltibia -3.24511
lfoot -30.2464 8.5588
ltoes 31.317
199
root 10.9651 18.0173 -30.1641 43.4902 -87.6322 -40.888
lowerback -5.21322 0.199117 2.43628
upperback -4.09811 0.0783786 -0.273879
thorax -1.2892 -0.0574549 -1.6432
lowerneck -1.50776 -0.364161 -1.31026
upperneck 3.23255 -0.569158 3.13482
head 1.26798 -0.25827 1.18544
rclavicle 3.15571e-015 2.38542e-015
rhumerus -10.9015 -30.0653 -10.5293
rradius 19.4583
rwrist 17.2932
rhand -12.0494 -46.9796
rfingers 7.12502
rthumb 14.0094 -76.4875
lclavicle 3.15571e-015 2.38542e-015
lhumerus -0.613048 6.49875 7.86933
lradius 20.0033
lwrist 7.12228
lhand -6.79158 -3.9845
lfingers 7.12502
lthumb 19.0713 25.1005
rfemur 9.84086 14.6926 14.8211
rtibia -2.35533
rfoot -25.111 -30.3888
rtoes -1.60978
lfemur 9.9625 -10.555 -5.42384
ltibia -3.24043
lfoot -30.5373 8.52839
ltoes 32.0204
200
root 10.9666 18.0174 -30.1681 44.7593 -87.5615 -42.1603
lowerback -5.19288 0.183778 2.55409
upperback -4.0846 0.054801 -0.212463
thorax -1.28791 -0.0706448 -1.64708
lowerneck -1.68695 -0.254692 -1.07453
upperneck 3.33503 -0.414511 2.70512
head 1.32317 -0.18209 1.01288
rclavicle 1.56543e-015 -1.98785e-016
rhumerus -10.8705 -29.6523 -10.486
rradius 19.4672
rwrist 16.8567
rhand -12.002 -46.9696
rfingers 7.12502
rthumb 14.055 -76.4744
lclavicle 1.56543e-015 -1.98785e-016
lhumerus -0.64426 6.45947 7.83578
lradius 20.0326
lwrist 7.0834
lhand -6.75527 -4.11779
lfingers 7.12502
lthumb 19.1062 24.9638
rfemur 9.82758 14.695 14.9457
rtibia -2.33397
rfoot -25.1829 -30.3173
rtoes -0.63514
lfemur 9.89223 -10.3735 -5.2322
ltibia -3.15357
lfoot -30.3245 8.49459
ltoes 31.8232
201
root 10.9682 18.0176 -30.1721 44.5529 -87.5558 -41.9763
lowerback -5.14955 0.210143 2.61177
upperback -4.06185 0.089877 -0.222737
thorax -1.28698 -0.0537128 -1.68864
lowerneck -1.73821 -0.273674 -1.11369
upperneck 3.40665 -0.440726 2.7214
head 1.35564 -0.194746 1.02478
rclavicle -5.54112e-015 -3.37934e-015
rhumerus -11.0363 -29.7621 -10.3528
rradius 19.4589
rwrist 16.9443
rhand -11.9692 -46.7474
rfingers 7.12502
rthumb 14.0867 -76.25
lclavicle -5.54112e-015 -3.37934e-015
lhumerus -0.489963 6.80739 7.92223
lradius 20.0277
lwrist 6.64773
lhand -6.75349 -4.2944
lfingers 7.12502
lthumb 19.1079 24.787
rfemur 9.82949 14.604 14.9315
rtibia -2.32199
rfoot -25.1137 -30.2525
rtoes -0.0840062
lfemur 9.90055 -10.537 -5.27053
ltibia -3.12425
lfoot -30.556 8.36708
ltoes 32.3343
202
root 10.9695 18.0168 -30.1756 42.5824 -87.6024 -40.0145
lowerback -5.12381 0.213151 2.59837
upperback -4.04057 0.0956642 -0.272884
thorax -1.27902 -0.0503842 -1.7325
lowerneck -1.73148 -0.279364 -1.15723
upperneck 3.42514 -0.449028 2.76085
head 1.36107 -0.198838 1.04461
rclavicle 2.88238e-015 4.57205e-015
rhumerus -11.1615 -30.0954 -10.3078
rradius 19.4192
rwrist 17.2868
rhand -11.9835 -46.4557
rfingers 7.12502
rthumb 14.0729 -75.9592
lclavicle 2.88238e-015 4.57205e-015
lhumerus -0.353066 7.13547 7.97375
lradius 20.0276
lwrist 6.32363
lhand -6.87433 -4.36598
lfingers 7.12502
lthumb 18.9917 24.7268
rfemur 9.81846 14.4881 14.7901
rtibia -2.30674
rfoot -24.9282 -30.2651
rtoes -0.764394
lfemur 9.8988 -10.8825 -5.48518
ltibia -3.07615
lfoot -31.0492 7.91992
ltoes 34.2366
203
root 10.9701 18.0155 -30.18 40.5896 -87.6123 -38.0028
lowerback -5.14028 0.192625 2.57091
upperback -4.02943 0.0689274 -0.302386
thorax -1.25964 -0.0630339 -1.74849
lowerneck -1.667 -0.284398 -1.10599
upperneck 3.42344 -0.455746 2.70517
head 1.34874 -0.202978 1.01801
rclavicle 3.45388e-015 2.18663e-015
rhumerus -11.2369 -30.2703 -10.2885
rradius 19.416
rwrist 17.4297
rhand -11.9382 -46.4683
rfingers 7.12502
rthumb 14.1166 -75.9688
lclavicle 3.45388e-015 2.18663e-015
lhumerus -0.289387 6.93948 7.86632
lradius 20.0813
lwrist 6.50364
lhand -7.05422 -4.36407
lfingers 7.12502
lthumb 18.8187 24.7456
rfemur 9.7976 14.4112 14.6949
rtibia -2.29695
rfoot -24.9091 -30.2926
rtoes -1.23541
lfemur 9.80705 -10.9591 -5.57243
ltibia -2.96255
lfoot -31.1934 7.65608
ltoes 35.2549
